<svg width="52" height="52" viewBox="0 0 52 52" fill="none" xmlns="http://www.w3.org/2000/svg">
    <path d="M19.7708 45.7167L1.51667 27.5167C1.3 27.3 1.14689 27.0653 1.05734 26.8125C0.966337 26.5597 0.920837 26.2889 0.920837 26C0.920837 25.7111 0.966337 25.4403 1.05734 25.1875C1.14689 24.9347 1.3 24.7 1.51667 24.4833L19.7708 6.22916C20.2764 5.7236 20.9083 5.47083 21.6667 5.47083C22.425 5.47083 23.075 5.74166 23.6167 6.28333C24.1583 6.82499 24.4292 7.45694 24.4292 8.17916C24.4292 8.90138 24.1583 9.53333 23.6167 10.075L7.69167 26L23.6167 41.925C24.1222 42.4305 24.375 43.0531 24.375 43.7927C24.375 44.5337 24.1042 45.175 23.5625 45.7167C23.0208 46.2583 22.3889 46.5292 21.6667 46.5292C20.9444 46.5292 20.3125 46.2583 19.7708 45.7167Z" fill="#6D80AC"/>
    </svg>
    