<svg width="25" height="42" viewBox="0 0 25 42" fill="none" xmlns="http://www.w3.org/2000/svg">
    <path d="M1.49164 40.7166C0.949972 40.175 0.679138 39.5336 0.679138 38.7926C0.679138 38.0531 0.949972 37.4125 1.49164 36.8708L17.3625 21L1.43747 5.07496C0.931916 4.5694 0.679138 3.93746 0.679138 3.17913C0.679138 2.42079 0.949972 1.77079 1.49164 1.22913C2.0333 0.687459 2.67464 0.416626 3.41564 0.416626C4.15519 0.416626 4.7958 0.687459 5.33747 1.22913L23.5375 19.4833C23.7541 19.7 23.908 19.9347 23.999 20.1875C24.0885 20.4402 24.1333 20.7111 24.1333 21C24.1333 21.2888 24.0885 21.5597 23.999 21.8125C23.908 22.0652 23.7541 22.3 23.5375 22.5166L5.2833 40.7708C4.77775 41.2763 4.15519 41.5291 3.41564 41.5291C2.67464 41.5291 2.0333 41.2583 1.49164 40.7166Z" fill="#6D80AC"/>
    </svg>
    