<svg width="52" height="52" viewBox="0 0 52 52" fill="none" xmlns="http://www.w3.org/2000/svg">
<path d="M15.4916 45.7166C14.95 45.175 14.6791 44.5336 14.6791 43.7926C14.6791 43.0531 14.95 42.4125 15.4916 41.8708L31.3625 26L15.4375 10.075C14.9319 9.5694 14.6791 8.93746 14.6791 8.17913C14.6791 7.42079 14.95 6.77079 15.4916 6.22913C16.0333 5.68746 16.6746 5.41663 17.4156 5.41663C18.1552 5.41663 18.7958 5.68746 19.3375 6.22913L37.5375 24.4833C37.7541 24.7 37.908 24.9347 37.999 25.1875C38.0885 25.4402 38.1333 25.7111 38.1333 26C38.1333 26.2888 38.0885 26.5597 37.999 26.8125C37.908 27.0652 37.7541 27.3 37.5375 27.5166L19.2833 45.7708C18.7777 46.2763 18.1552 46.5291 17.4156 46.5291C16.6746 46.5291 16.0333 46.2583 15.4916 45.7166Z" fill="#6D80AC"/>
</svg>
